# xmcd CD database file
#
# Track frame offsets:
#	150
#	23776
#	40853
#	58974
#	80144
#	101549
#	130338
#	155056
#	181717
#	205467
#	232318
#	253791
#	273507
#	293771
#
# Disc length: 4116 seconds
#
# Revision: 0
# Processed by: cddbd v1.5.2PL0 Copyright (c) Steve Scherf et al.
# Submitted via: Hanso CD Extractor 
#
DISCID=d410120e
DTITLE=Varios Artistas - Lo Mejor De Los Merengues De Los 80's (En Vivo)
DYEAR=1900
DGENRE=Merengue
TTITLE0=El Zafiro (Carlos Manuel) - Lamento Mi Cantar
TTITLE1=Wilfrido Vargas - A Mover La Colita
TTITLE2=Benny Sadel - Yo Soy Asi
TTITLE3=Bonny Cepeda - Asesina
TTITLE4=Aramis Camilo - Vuelve
TTITLE5=Carlos David - Dame Tu Querer
TTITLE6=Sandy Reyes - Abusadora
TTITLE7=Cheche Abreu - El Mangue
TTITLE8=Ray Polanco - El Trillo
TTITLE9=Peter Cruz - Cometa Blanca
TTITLE10=Charlie Rodriguez - Oye Muchacha
TTITLE11=El Zafiro (Carlos Manuel) - El Cantante Del Amor
TTITLE12=Carlos David - La Cobardia
TTITLE13=Benny Sadel - Te He Prometido
EXTD=
EXTT0=
EXTT1=
EXTT2=
EXTT3=
EXTT4=
EXTT5=
EXTT6=
EXTT7=
EXTT8=
EXTT9=
EXTT10=
EXTT11=
EXTT12=
EXTT13=
PLAYORDER=
